<svg xmlns="http://www.w3.org/2000/svg" viewBox="-3 0 134 64" width="512" height="244">
  <defs>
    <filter id="glowY" x="-50%" y="-50%" width="200%" height="200%">
      <feGaussianBlur stdDeviation="0.5" result="b"/>
      <feMerge><feMergeNode in="b"/><feMergeNode in="SourceGraphic"/></feMerge>
    </filter>
    <filter id="glowB" x="-50%" y="-50%" width="200%" height="200%">
      <feGaussianBlur stdDeviation="0.5" result="b"/>
      <feMerge><feMergeNode in="b"/><feMergeNode in="SourceGraphic"/></feMerge>
    </filter>
    <pattern id="scan" width="1" height="4" patternUnits="userSpaceOnUse">
      <rect width="1" height="1" fill="#000" opacity="0.35"/>
    </pattern>
  </defs>
  <style>
    text { font-family: ui-monospace, "SF Mono", "Cascadia Mono", "Courier New", monospace; }
    .y { fill: #ffd97a; }
    .b { fill: #7ecbff; }
    .bdim { fill: #55889f; }
  </style>
  <rect x="-3" y="0" width="134" height="64" fill="#04070a"/>
  <text x="0" y="9" font-size="8" text-anchor="start" class="y" filter="url(#glowY)">Sensitivity:</text>
  <line x1="0" y1="12" x2="128" y2="12" stroke="#ffd97a" stroke-width="1" class="y" filter="url(#glowY)"/>
  <text x="0" y="26" font-size="8" text-anchor="start" class="b" filter="url(#glowB)">Level 5</text>
  <polygon points="61,31 67,31 64,36" class="b" filter="url(#glowB)"/>
  <line x1="4" y1="38.5" x2="124.5" y2="38.5" stroke="#7ecbff" stroke-width="1" class="b" filter="url(#glowB)"/>
  <line x1="4" y1="39" x2="4" y2="43" stroke="#7ecbff" stroke-width="1" class="b" filter="url(#glowB)"/>
  <line x1="16" y1="39" x2="16" y2="43" stroke="#7ecbff" stroke-width="1" class="b" filter="url(#glowB)"/>
  <line x1="28" y1="39" x2="28" y2="43" stroke="#7ecbff" stroke-width="1" class="b" filter="url(#glowB)"/>
  <line x1="40" y1="39" x2="40" y2="43" stroke="#7ecbff" stroke-width="1" class="b" filter="url(#glowB)"/>
  <line x1="52" y1="39" x2="52" y2="43" stroke="#7ecbff" stroke-width="1" class="b" filter="url(#glowB)"/>
  <line x1="64" y1="39" x2="64" y2="43" stroke="#7ecbff" stroke-width="1" class="b" filter="url(#glowB)"/>
  <line x1="76" y1="39" x2="76" y2="43" stroke="#7ecbff" stroke-width="1" class="b" filter="url(#glowB)"/>
  <line x1="88" y1="39" x2="88" y2="43" stroke="#7ecbff" stroke-width="1" class="b" filter="url(#glowB)"/>
  <line x1="100" y1="39" x2="100" y2="43" stroke="#7ecbff" stroke-width="1" class="b" filter="url(#glowB)"/>
  <line x1="112" y1="39" x2="112" y2="43" stroke="#7ecbff" stroke-width="1" class="b" filter="url(#glowB)"/>
  <line x1="124" y1="39" x2="124" y2="43" stroke="#7ecbff" stroke-width="1" class="b" filter="url(#glowB)"/>
  <text x="4" y="50" font-size="5" text-anchor="middle" class="b" filter="url(#glowB)">0</text>
  <text x="16" y="50" font-size="5" text-anchor="middle" class="b" filter="url(#glowB)">1</text>
  <text x="28" y="50" font-size="5" text-anchor="middle" class="b" filter="url(#glowB)">2</text>
  <text x="40" y="50" font-size="5" text-anchor="middle" class="b" filter="url(#glowB)">3</text>
  <text x="52" y="50" font-size="5" text-anchor="middle" class="b" filter="url(#glowB)">4</text>
  <text x="64" y="50" font-size="5" text-anchor="middle" class="b" filter="url(#glowB)">5</text>
  <text x="76" y="50" font-size="5" text-anchor="middle" class="b" filter="url(#glowB)">6</text>
  <text x="88" y="50" font-size="5" text-anchor="middle" class="b" filter="url(#glowB)">7</text>
  <text x="100" y="50" font-size="5" text-anchor="middle" class="b" filter="url(#glowB)">8</text>
  <text x="112" y="50" font-size="5" text-anchor="middle" class="b" filter="url(#glowB)">9</text>
  <text x="124" y="50" font-size="5" text-anchor="middle" class="b" filter="url(#glowB)">10</text>
  <text x="0" y="61" font-size="8" text-anchor="start" class="b" filter="url(#glowB)">short=change long=OK</text>
  <rect x="-3" y="0" width="134" height="64" fill="url(#scan)"/>
</svg>
